<?xml version="1.0" encoding="UTF-8" standalone="no"?>
<svg
   xmlns:dc="http://purl.org/dc/elements/1.1/"
   xmlns:cc="http://creativecommons.org/ns#"
   xmlns:rdf="http://www.w3.org/1999/02/22-rdf-syntax-ns#"
   xmlns:svg="http://www.w3.org/2000/svg"
   xmlns="http://www.w3.org/2000/svg"
   xmlns:sodipodi="http://sodipodi.sourceforge.net/DTD/sodipodi-0.dtd"
   xmlns:inkscape="http://www.inkscape.org/namespaces/inkscape"
   version="1.1"
   id="svg104"
   width="129.03651"
   height="196.75404"
   viewBox="0 0 129.03652 196.75405"
   sodipodi:docname="chemex.svg"
   inkscape:version="1.0.2 (e86c8708, 2021-01-15)">
  <metadata
     id="metadata110">
    <rdf:RDF>
      <cc:Work
         rdf:about="">
        <dc:format>image/svg+xml</dc:format>
        <dc:type
           rdf:resource="http://purl.org/dc/dcmitype/StillImage" />
        <dc:title></dc:title>
      </cc:Work>
    </rdf:RDF>
  </metadata>
  <defs
     id="defs108" />
  <sodipodi:namedview
     pagecolor="#ffffff"
     bordercolor="#666666"
     borderopacity="1"
     objecttolerance="10"
     gridtolerance="10"
     guidetolerance="10"
     inkscape:pageopacity="0"
     inkscape:pageshadow="2"
     inkscape:window-width="1207"
     inkscape:window-height="687"
     id="namedview106"
     showgrid="false"
     inkscape:pagecheckerboard="true"
     fit-margin-top="0"
     fit-margin-left="0"
     fit-margin-right="0"
     fit-margin-bottom="0"
     inkscape:zoom="2.0212501"
     inkscape:cx="59.595445"
     inkscape:cy="104.40553"
     inkscape:window-x="73"
     inkscape:window-y="85"
     inkscape:window-maximized="0"
     inkscape:current-layer="g112" />
  <g
     inkscape:groupmode="layer"
     inkscape:label="Image"
     id="g112"
     transform="translate(-73.737883,-28.927796)">
    <path
       style="fill:#000000;stroke-width:1.33333"
       d="M 96.938799,224.85361 C 82.51242,220.3085 73.94383,209.18114 73.741986,194.72974 c -0.09597,-6.87106 1.432728,-12.18702 10.832858,-37.67066 l 10.944595,-29.67068 -2.758223,-4.67484 c -3.177256,-5.38504 -2.931296,-11.14923 0.889889,-20.85505 l 2.44274,-6.20456 -3.573208,-7.962162 c -4.16137,-9.27277 -4.376221,-12.200137 -1.361663,-18.552846 2.116375,-4.45993 2.083935,-4.956296 -0.75385,-11.534838 -9.30682,-21.575028 -10.009834,-23.70096 -8.584808,-25.960652 1.285284,-2.038098 6.50144,-2.279397 56.096664,-2.59502 48.93082,-0.311394 54.86711,-0.122066 56.46295,1.800808 1.98158,2.387656 1.47836,4.120671 -6.80266,23.427316 -4.29612,10.016129 -4.3381,10.303418 -2.17198,14.868171 3.01168,6.34665 2.79619,9.276026 -1.36441,18.547061 l -3.5732,7.962162 2.44273,6.20456 c 3.84254,9.76003 4.06999,15.42443 0.82991,20.667 l -2.81217,4.55019 10.94781,29.82702 c 9.2742,25.26729 10.94016,31.05 10.89765,37.82702 -0.0775,12.35043 -6.16124,21.96816 -17.82618,28.18112 -4.2203,2.2478 -8.49268,2.50995 -44.66667,2.7406 -22,0.14028 -41.50388,-0.21875 -43.341961,-0.79785 z m 86.497331,-13.3253 c 4.66304,-3.32577 9.43127,-11.93769 9.48202,-17.12553 0.0161,-1.64649 -4.92072,-16.79153 -10.97072,-33.65565 l -11,-30.66204 -32.69827,-0.0107 -32.69826,-0.0107 -11.140399,31.20748 c -12.107869,33.91763 -12.416907,36.07261 -6.430606,44.84137 6.241692,9.14284 7.712254,9.39878 51.634195,8.98678 39.11038,-0.36688 39.35878,-0.38712 43.82204,-3.5704 z m -9.42204,-93.7319 c 2.14084,-2.14084 2.0175,-4.55098 -0.58114,-11.35542 l -2.18115,-5.71125 h -11.15219 c -6.1337,0 -11.13884,0.45 -11.12253,1 0.0163,0.55 1.20296,2.5 2.63701,4.33334 3.00246,3.83841 3.34903,6.78431 1.06667,9.06666 -2.93359,2.93359 -6.32727,1.65274 -9.8916,-3.73333 -1.94119,-2.93333 -3.96996,-5.33333 -4.5084,-5.33333 -0.53843,0 -2.56721,2.4 -4.5084,5.33333 -3.56433,5.38607 -6.95801,6.66692 -9.8916,3.73333 -2.28236,-2.28235 -1.93578,-5.22825 1.06667,-9.06666 1.43405,-1.83334 2.62071,-3.78334 2.63702,-4.33334 0.0163,-0.55 -4.98884,-1 -11.12255,-1 h -11.15218 l -2.18115,5.71125 c -2.59864,6.80444 -2.72198,9.21458 -0.58114,11.35542 2.27752,2.27752 69.18914,2.27752 71.46666,0 z m 0.30868,-34.489702 c 5.39072,-11.509415 6.24271,-11.24363 -36.04201,-11.24363 -42.28472,0 -41.432732,-0.265785 -36.04201,11.24363 l 3.16451,6.75637 h 32.8775 32.87751 z m 2.17684,-30.243629 c 1.873,-4.216667 3.92514,-9.016667 4.5603,-10.666667 l 1.15485,-3 h -43.934 -43.933993 l 1.154845,3 c 0.635165,1.65 2.687297,6.45 4.560288,10.666667 l 3.40545,7.666666 h 34.81341 34.81341 z"
       id="path116" />
  </g>
</svg>
